<mxfile host="www.draw.io" modified="2019-12-07T09:25:09.946Z" agent="Mozilla/5.0 (Windows NT 6.1; Win64; x64) AppleWebKit/537.36 (KHTML, like Gecko) Chrome/77.0.3865.90 Safari/537.36" etag="v6fZ91HrwWPFFZumHLeX" version="12.3.8" type="github" pages="1">
  <diagram id="EJcrb3a4n1ViV2a4O8cz" name="第 1 页">
    <mxGraphModel dx="868" dy="484" grid="1" gridSize="10" guides="1" tooltips="1" connect="1" arrows="1" fold="1" page="1" pageScale="1" pageWidth="827" pageHeight="1169" math="0" shadow="0">
      <root>
        <mxCell id="0"/>
        <mxCell id="1" parent="0"/>
        <mxCell id="RlPB6atfewtDa8ce3-N_-4" style="rounded=0;orthogonalLoop=1;jettySize=auto;html=1;exitX=1;exitY=0.5;exitDx=0;exitDy=0;entryX=0;entryY=0.5;entryDx=0;entryDy=0;" edge="1" parent="1" source="RlPB6atfewtDa8ce3-N_-1" target="RlPB6atfewtDa8ce3-N_-2">
          <mxGeometry relative="1" as="geometry">
            <mxPoint x="270" y="170" as="targetPoint"/>
          </mxGeometry>
        </mxCell>
        <mxCell id="RlPB6atfewtDa8ce3-N_-1" value="研究员model" style="rounded=0;whiteSpace=wrap;html=1;" vertex="1" parent="1">
          <mxGeometry x="70" y="100" width="120" height="60" as="geometry"/>
        </mxCell>
        <mxCell id="RlPB6atfewtDa8ce3-N_-6" style="edgeStyle=none;rounded=0;orthogonalLoop=1;jettySize=auto;html=1;entryX=0;entryY=0;entryDx=0;entryDy=0;" edge="1" parent="1" source="RlPB6atfewtDa8ce3-N_-2" target="RlPB6atfewtDa8ce3-N_-13">
          <mxGeometry relative="1" as="geometry">
            <mxPoint x="510" y="170" as="targetPoint"/>
          </mxGeometry>
        </mxCell>
        <mxCell id="RlPB6atfewtDa8ce3-N_-7" value="OK" style="text;html=1;align=center;verticalAlign=middle;resizable=0;points=[];;labelBackgroundColor=#ffffff;" vertex="1" connectable="0" parent="RlPB6atfewtDa8ce3-N_-6">
          <mxGeometry x="-0.1818" y="-2" relative="1" as="geometry">
            <mxPoint as="offset"/>
          </mxGeometry>
        </mxCell>
        <mxCell id="RlPB6atfewtDa8ce3-N_-8" style="edgeStyle=orthogonalEdgeStyle;rounded=0;orthogonalLoop=1;jettySize=auto;html=1;exitX=0.5;exitY=0;exitDx=0;exitDy=0;" edge="1" parent="1" source="RlPB6atfewtDa8ce3-N_-2">
          <mxGeometry relative="1" as="geometry">
            <mxPoint x="130" y="96" as="targetPoint"/>
            <Array as="points">
              <mxPoint x="340" y="60"/>
              <mxPoint x="130" y="60"/>
            </Array>
          </mxGeometry>
        </mxCell>
        <mxCell id="RlPB6atfewtDa8ce3-N_-9" value="NG" style="text;html=1;align=center;verticalAlign=middle;resizable=0;points=[];;labelBackgroundColor=#ffffff;" vertex="1" connectable="0" parent="RlPB6atfewtDa8ce3-N_-8">
          <mxGeometry x="-0.1227" y="2" relative="1" as="geometry">
            <mxPoint as="offset"/>
          </mxGeometry>
        </mxCell>
        <mxCell id="RlPB6atfewtDa8ce3-N_-2" value="测试相应数据指标" style="rounded=1;whiteSpace=wrap;html=1;" vertex="1" parent="1">
          <mxGeometry x="280" y="140" width="120" height="60" as="geometry"/>
        </mxCell>
        <mxCell id="RlPB6atfewtDa8ce3-N_-5" style="edgeStyle=none;rounded=0;orthogonalLoop=1;jettySize=auto;html=1;exitX=1;exitY=0.5;exitDx=0;exitDy=0;" edge="1" parent="1" source="RlPB6atfewtDa8ce3-N_-3">
          <mxGeometry relative="1" as="geometry">
            <mxPoint x="278" y="177" as="targetPoint"/>
          </mxGeometry>
        </mxCell>
        <mxCell id="RlPB6atfewtDa8ce3-N_-3" value="制定采集标准&lt;br&gt;项目环境采集数据集" style="rounded=0;whiteSpace=wrap;html=1;" vertex="1" parent="1">
          <mxGeometry x="70" y="200" width="120" height="60" as="geometry"/>
        </mxCell>
        <mxCell id="RlPB6atfewtDa8ce3-N_-12" style="edgeStyle=orthogonalEdgeStyle;rounded=0;orthogonalLoop=1;jettySize=auto;html=1;entryX=0;entryY=0.5;entryDx=0;entryDy=0;" edge="1" parent="1" source="RlPB6atfewtDa8ce3-N_-10" target="RlPB6atfewtDa8ce3-N_-11">
          <mxGeometry relative="1" as="geometry"/>
        </mxCell>
        <mxCell id="RlPB6atfewtDa8ce3-N_-10" value="SDK" style="rounded=0;whiteSpace=wrap;html=1;" vertex="1" parent="1">
          <mxGeometry x="70" y="360" width="120" height="60" as="geometry"/>
        </mxCell>
        <mxCell id="RlPB6atfewtDa8ce3-N_-14" style="rounded=0;orthogonalLoop=1;jettySize=auto;html=1;exitX=1;exitY=0.5;exitDx=0;exitDy=0;entryX=0;entryY=1;entryDx=0;entryDy=0;" edge="1" parent="1" source="RlPB6atfewtDa8ce3-N_-11" target="RlPB6atfewtDa8ce3-N_-13">
          <mxGeometry relative="1" as="geometry"/>
        </mxCell>
        <mxCell id="RlPB6atfewtDa8ce3-N_-11" value="接口抽象化，功能插件化" style="rounded=1;whiteSpace=wrap;html=1;" vertex="1" parent="1">
          <mxGeometry x="290" y="360" width="120" height="60" as="geometry"/>
        </mxCell>
        <mxCell id="RlPB6atfewtDa8ce3-N_-17" style="edgeStyle=none;rounded=0;orthogonalLoop=1;jettySize=auto;html=1;entryX=0;entryY=0.5;entryDx=0;entryDy=0;" edge="1" parent="1" source="RlPB6atfewtDa8ce3-N_-13" target="RlPB6atfewtDa8ce3-N_-16">
          <mxGeometry relative="1" as="geometry"/>
        </mxCell>
        <mxCell id="RlPB6atfewtDa8ce3-N_-13" value="实现model与插件的动态绑定" style="ellipse;whiteSpace=wrap;html=1;" vertex="1" parent="1">
          <mxGeometry x="490" y="230" width="120" height="80" as="geometry"/>
        </mxCell>
        <mxCell id="RlPB6atfewtDa8ce3-N_-16" value="产品应用" style="rounded=0;whiteSpace=wrap;html=1;" vertex="1" parent="1">
          <mxGeometry x="700" y="240" width="80" height="60" as="geometry"/>
        </mxCell>
      </root>
    </mxGraphModel>
  </diagram>
</mxfile>
